HIERARCHY
ROOT Hips
{
  OFFSET 0.217199 18.5065 -3.35068
  CHANNELS 6 Xposition Yposition Zposition Zrotation Xrotation Yrotation
  JOINT LHipJoint
  {
    OFFSET 0 0 0
    CHANNELS 6 Xposition Yposition Zposition Zrotation Xrotation Yrotation
    JOINT LeftUpLeg
    {
      OFFSET 1.8 -1.4 0.085
      CHANNELS 6 Xposition Yposition Zposition Zrotation Xrotation Yrotation
      JOINT LeftLeg
      {
        OFFSET 2.215 -6 0
        CHANNELS 6 Xposition Yposition Zposition Zrotation Xrotation Yrotation
        JOINT LeftFoot
        {
          OFFSET 2.5 -6.9 0
          CHANNELS 6 Xposition Yposition Zposition Zrotation Xrotation Yrotation
          JOINT LeftToeBase
          {
            OFFSET 0.2 -0.5 1.95
            CHANNELS 6 Xposition Yposition Zposition Zrotation Xrotation Yrotation
            End Site
            {
              OFFSET 0 0 1
            }
          }
        }
      }
    }
  }
  JOINT RHipJoint
  {
    OFFSET 0 0 0
    CHANNELS 6 Xposition Yposition Zposition Zrotation Xrotation Yrotation
    JOINT RightUpLeg
    {
      OFFSET -1.8 -1.4 0.085
      CHANNELS 6 Xposition Yposition Zposition Zrotation Xrotation Yrotation
      JOINT RightLeg
      {
        OFFSET -2.215 -6 0
        CHANNELS 6 Xposition Yposition Zposition Zrotation Xrotation Yrotation
        JOINT RightFoot
        {
          OFFSET -2.5 -6.9 0
          CHANNELS 6 Xposition Yposition Zposition Zrotation Xrotation Yrotation
          JOINT RightToeBase
          {
            OFFSET -0.2 -0.5 1.95
            CHANNELS 6 Xposition Yposition Zposition Zrotation Xrotation Yrotation
            End Site
            {
              OFFSET 0 0 1
            }
          }
        }
      }
    }
  }
  JOINT LowerBack
  {
    OFFSET 0 0 0
    CHANNELS 6 Xposition Yposition Zposition Zrotation Xrotation Yrotation
    JOINT Spine
    {
      OFFSET -0.087 1.94 -0.2889
      CHANNELS 6 Xposition Yposition Zposition Zrotation Xrotation Yrotation
      JOINT Spine1
      {
        OFFSET 0 1.95 0.06
        CHANNELS 6 Xposition Yposition Zposition Zrotation Xrotation Yrotation
        JOINT Neck
        {
          OFFSET 0 0 0
          CHANNELS 6 Xposition Yposition Zposition Zrotation Xrotation Yrotation
          JOINT Neck1
          {
            OFFSET 0 1.6 0.34
            CHANNELS 6 Xposition Yposition Zposition Zrotation Xrotation Yrotation
            JOINT Head
            {
              OFFSET 0 1.667 -0.24
              CHANNELS 6 Xposition Yposition Zposition Zrotation Xrotation Yrotation
              End Site
              {
                OFFSET 0 1.686 -0.12
              }
            }
          }
        }
        JOINT LeftShoulder
        {
          OFFSET 0 0 0
          CHANNELS 6 Xposition Yposition Zposition Zrotation Xrotation Yrotation
          JOINT LeftArm
          {
            OFFSET 2.7 1.55 -0.73
            CHANNELS 6 Xposition Yposition Zposition Zrotation Xrotation Yrotation
            JOINT LeftForeArm
            {
              OFFSET 5.45 0 0
              CHANNELS 6 Xposition Yposition Zposition Zrotation Xrotation Yrotation
              JOINT LeftHand
              {
                OFFSET 3.45 0 0
                CHANNELS 6 Xposition Yposition Zposition Zrotation Xrotation Yrotation
                JOINT LeftFingerBase
                {
                  OFFSET 0 0 0
                  CHANNELS 6 Xposition Yposition Zposition Zrotation Xrotation Yrotation
                  JOINT LeftHandIndex1
                  {
                    OFFSET 0.75 0 0
                    CHANNELS 6 Xposition Yposition Zposition Zrotation Xrotation Yrotation
                    End Site
                    {
                      OFFSET 0.6 0 0
                    }
                  }
                }
                JOINT LThumb
                {
                  OFFSET 0 0 0
                  CHANNELS 6 Xposition Yposition Zposition Zrotation Xrotation Yrotation
                  End Site
                  {
                    OFFSET 0.59 0 0.59
                  }
                }
              }
            }
          }
        }
        JOINT RightShoulder
        {
          OFFSET 0 0 0
          CHANNELS 6 Xposition Yposition Zposition Zrotation Xrotation Yrotation
          JOINT RightArm
          {
            OFFSET -2.7 1.55 -0.73
            CHANNELS 6 Xposition Yposition Zposition Zrotation Xrotation Yrotation
            JOINT RightForeArm
            {
              OFFSET -5.45 0 0
              CHANNELS 6 Xposition Yposition Zposition Zrotation Xrotation Yrotation
              JOINT RightHand
              {
                OFFSET -3.45 0 0
                CHANNELS 6 Xposition Yposition Zposition Zrotation Xrotation Yrotation
                JOINT RightFingerBase
                {
                  OFFSET 0 0 0
                  CHANNELS 6 Xposition Yposition Zposition Zrotation Xrotation Yrotation
                  JOINT RightHandIndex1
                  {
                    OFFSET -0.75 0 0
                    CHANNELS 6 Xposition Yposition Zposition Zrotation Xrotation Yrotation
                    End Site
                    {
                      OFFSET -0.6 0 0
                    }
                  }
                }
                JOINT RThumb
                {
                  OFFSET 0 0 0
                  CHANNELS 6 Xposition Yposition Zposition Zrotation Xrotation Yrotation
                  End Site
                  {
                    OFFSET -0.59 0 0.59
                  }
                }
              }
            }
          }
        }
      }
    }
  }
}
MOTION
Frames:	7
Frame Time:	0.00833333
8.39604 16.0128 2.96414 14.1953 -10.2264 -15.0092 0 0 0 -1.19271e-15 0 -0 1.8 -1.4 0.085 -8.90148 -23.3291 -0.950441 2.215 -6 0 3.02512 16.0626 -20.1291 2.5 -6.9 8.88178e-16 -37.0521 11.6575 18.4861 0.2 -0.5 1.95 2.38542e-15 0 3.18055e-15 0 0 0 -1.19271e-15 0 -0 -1.8 -1.4 0.085 -0.326001 -16.7816 0.866336 -2.215 -6 8.88178e-16 -9.82519 45.7543 -67.3454 -2.5 -6.9 0 34.316 -27.0659 18.7495 -0.2 -0.5 1.95 -1.59028e-15 3.18055e-15 -3.18055e-15 0 0 0 -1.19271e-15 0 -0 -0.087 1.94 -0.2889 42.5513 5.33947 6.8148 0 1.95 0.06 -20.2359 -4.91214 10.8044 0 0 0 2.5421 -27.9444 7.35538 0 1.6 0.34 -0.108318 8.90516 6.57424 1.77636e-15 1.667 -0.24 -13.6713 8.89243 26.1432 0 0 0 -17.0958 -3.38959 17.6275 2.7 1.55 -0.73 7.61839 -37.3466 -52.6621 5.45 -8.88178e-16 -9.99201e-16 47.6691 50.1402 -51.141 3.45 -1.77636e-15 1.77636e-15 0.636788 6.58233 -16.9658 0 0 0 -7.95139e-16 3.18055e-15 6.36111e-15 0.75 -1.77636e-15 1.77636e-15 3.18055e-15 -1.59028e-15 -3.18055e-15 0 0 0 -7.95139e-16 3.18055e-15 3.18055e-15 0 0 0 -3.72047 0.474745 5.63612 -2.7 1.55 -0.73 34.737 -4.6579 110.702 -5.45 -4.44089e-16 0 154.402 -9.62996 127.656 -3.45 -4.44089e-16 0 -36.9251 0.724209 -6.73984 0 0 0 6.36111e-15 6.36111e-15 4.77083e-15 -0.75 0 0 -1.59028e-15 3.18055e-15 1.59028e-15 0 0 0 7.95139e-15 6.36111e-15 1.59028e-15 
8.45292 16.0412 3.0081 13.9408 -9.98982 -14.706 0 0 0 -7.95139e-16 0 -0 1.8 -1.4 0.085 -8.87091 -23.0532 -0.921266 2.215 -6 8.88178e-16 2.82031 16.6359 -21.9121 2.5 -6.9 -8.88178e-16 -36.3494 8.93941 19.1393 0.2 -0.5 1.95 -1.59028e-15 0 -3.18055e-15 0 0 0 -7.95139e-16 0 -0 -1.8 -1.4 0.085 -0.229697 -16.3085 0.655947 -2.215 -6 0 -10.0436 45.0308 -67.1883 -2.5 -6.9 0 34.2831 -26.6941 18.4522 -0.2 -0.5 1.95 6.36111e-15 -7.95139e-16 -1.59028e-15 0 0 0 -7.95139e-16 0 -0 -0.087 1.94 -0.2889 42.62 5.35949 6.83001 0 1.95 0.06 -20.1277 -5.00851 10.7986 0 0 0 2.27531 -27.5137 7.21657 0 1.6 0.34 -0.324577 9.34062 6.53047 -1.77636e-15 1.667 -0.24 -13.2309 8.88666 25.5953 0 0 0 -19.3132 -3.61852 17.4711 2.7 1.55 -0.73 11.8409 -38.3977 -50.0309 5.45 0 -6.10623e-16 48.2085 47.7431 -52.1452 3.45 1.77636e-15 0 0.815538 6.48537 -17.085 0 0 0 1.59028e-15 7.95139e-16 -6.36111e-15 0.75 1.77636e-15 0 7.95139e-16 3.18055e-15 -6.36111e-15 0 0 0 0 0 -6.36111e-15 0 0 0 -3.10827 0.425706 3.90564 -2.7 1.55 -0.73 34.3404 -4.42949 111.374 -5.45 -4.44089e-16 0 154.223 -8.7806 126.726 -3.45 -4.44089e-16 8.88178e-16 -35.8225 0.865026 -8.11754 0 0 0 -4.77083e-15 6.36111e-15 3.18055e-15 -0.75 -3.55271e-15 0 1.59028e-15 -3.18055e-15 4.77083e-15 0 0 0 -3.18055e-15 6.36111e-15 7.95139e-16 
8.51203 16.0709 3.05383 13.7092 -9.69565 -14.3775 0 0 0 7.95139e-16 -3.18055e-15 1.59028e-15 1.8 -1.4 0.085 -8.93812 -22.7673 -0.969116 2.215 -6 -8.88178e-16 2.74878 17.2733 -24.0101 2.5 -6.9 -8.88178e-16 -35.4997 5.79645 20.4413 0.2 -0.5 1.95 -1.59028e-15 0 -9.54166e-15 0 0 0 7.95139e-16 -3.18055e-15 1.59028e-15 -1.8 -1.4 0.085 -0.145092 -15.9321 0.490678 -2.215 -6 8.88178e-16 -10.254 44.3876 -67.0756 -2.5 -6.9 8.88178e-16 34.2701 -26.1739 18.0445 -0.2 -0.5 1.95 4.77083e-15 3.97569e-15 -1.59028e-15 0 0 0 7.95139e-16 -3.18055e-15 1.59028e-15 -0.087 1.94 -0.2889 42.6809 5.31149 6.87653 0 1.95 0.06 -20.0399 -5.1025 10.7992 0 0 0 1.93413 -27.0494 7.06286 1.77636e-15 1.6 0.34 -0.611611 9.8097 6.49356 1.77636e-15 1.667 -0.24 -12.4917 8.68694 24.916 0 0 0 -21.9247 -3.88523 17.1843 2.7 1.55 -0.73 16.875 -39.2942 -46.8756 5.45 -4.44089e-16 1.22125e-15 49.764 45.6617 -53.5999 3.45 1.77636e-15 1.77636e-15 0.942795 6.42447 -17.0317 0 0 0 3.18055e-15 0 -6.36111e-15 0.75 0 0 7.95139e-16 1.59028e-15 -0 0 0 0 2.38542e-15 0 -6.36111e-15 0 0 0 -2.51781 0.365692 2.28075 -2.7 1.55 -0.73 33.9412 -4.28455 111.89 -5.45 -4.44089e-16 -1.77636e-15 152.594 -9.08318 125.309 -3.45 0 8.88178e-16 -33.6721 0.9269 -9.66616 0 0 0 -3.97569e-15 9.54166e-15 -3.97569e-15 -0.75 -1.77636e-15 -1.77636e-15 -9.54166e-15 -6.36111e-15 -1.59028e-15 0 0 0 -3.18055e-15 9.54166e-15 -5.56597e-15 
8.57306 16.1019 3.10175 13.4819 -9.36816 -14.0344 0 0 0 -7.95139e-16 4.77083e-15 4.77083e-15 1.8 -1.4 0.085 -9.06941 -22.478 -1.06253 2.215 -6 0 2.79464 17.9046 -26.2737 2.5 -6.9 8.88178e-16 -34.4176 2.52628 22.1748 0.2 -0.5 1.95 5.56597e-15 4.77083e-15 -0 0 0 0 -7.95139e-16 4.77083e-15 4.77083e-15 -1.8 -1.4 0.085 -0.0644692 -15.5964 0.3449 -2.215 -6 8.88178e-16 -10.4655 43.7688 -66.9822 -2.5 -6.9 8.88178e-16 34.2703 -25.5557 17.5676 -0.2 -0.5 1.95 3.18055e-15 -2.38542e-15 -1.59028e-15 0 0 0 -7.95139e-16 4.77083e-15 4.77083e-15 -0.087 1.94 -0.2889 42.7468 5.22805 6.94502 3.55271e-15 1.95 0.06 -19.972 -5.19416 10.8109 0 0 0 1.55048 -26.5592 6.89916 0 1.6 0.34 -0.939599 10.3046 6.45907 1.77636e-15 1.667 -0.24 -11.5907 8.38166 24.1556 0 0 0 -24.7921 -4.1323 16.7045 2.7 1.55 -0.73 22.4848 -40.0118 -43.2261 5.45 -4.44089e-16 -1.11022e-15 51.8722 43.7888 -55.2433 3.45 0 1.77636e-15 1.1041 6.36386 -16.8832 0 0 0 3.18055e-15 -1.59028e-15 -3.18055e-15 0.75 -1.77636e-15 3.55271e-15 3.97569e-15 -1.59028e-15 -0 0 0 0 1.59028e-15 -1.59028e-15 -3.18055e-15 0 0 0 -1.94309 0.291403 0.745997 -2.7 1.55 -0.73 33.5607 -4.22458 112.283 -5.45 4.44089e-16 1.77636e-15 150.092 -9.94047 123.609 -3.45 0 0 -30.9307 0.92932 -11.2644 0 0 0 9.14409e-15 1.59028e-14 9.14409e-15 -0.75 -1.77636e-15 1.77636e-15 -4.77083e-15 3.18055e-15 -2.38542e-15 0 0 0 1.07344e-14 1.59028e-14 7.55382e-15 
8.63477 16.1352 3.15249 13.2373 -9.04003 -13.6884 0 0 0 7.95139e-16 0 1.59028e-15 1.8 -1.4 0.085 -9.24614 -22.2078 -1.16973 2.215 -6 1.77636e-15 2.91348 18.4308 -28.3729 2.5 -6.9 -2.66454e-15 -33.0725 -0.36834 23.9751 0.2 -0.5 1.95 3.18055e-15 3.18055e-15 -3.18055e-15 0 0 0 7.95139e-16 0 1.59028e-15 -1.8 -1.4 0.085 0.0275541 -15.227 0.185543 -2.215 -6 0 -10.6913 43.0948 -66.8842 -2.5 -6.9 -1.77636e-15 34.2548 -24.8988 17.0594 -0.2 -0.5 1.95 3.18055e-15 0 -1.59028e-15 0 0 0 7.95139e-16 0 1.59028e-15 -0.087 1.94 -0.2889 42.8257 5.15266 7.02008 3.55271e-15 1.95 0.06 -19.9221 -5.27813 10.837 0 0 0 1.17537 -26.0703 6.73386 -1.77636e-15 1.6 0.34 -1.26021 10.7979 6.41985 0 1.667 -0.24 -10.7219 8.09563 23.3876 0 0 0 -27.7299 -4.24698 15.93 2.7 1.55 -0.73 28.3752 -40.5581 -39.1195 5.45 2.22045e-16 4.44089e-16 53.9128 42.0094 -56.7483 3.45 1.77636e-15 0 1.54716 6.22934 -16.8072 0 0 0 -3.18055e-15 0 3.18055e-15 0.75 1.77636e-15 -1.77636e-15 1.59028e-15 -4.77083e-15 -0 0 0 0 -4.77083e-15 0 3.18055e-15 0 0 0 -1.36877 0.20007 -0.773351 -2.7 1.55 -0.73 33.1646 -4.16368 112.619 -5.45 4.44089e-16 -1.77636e-15 147.469 -10.7173 121.824 -3.45 0 0 -28.1075 0.879921 -12.6634 0 0 0 -5.76476e-15 -3.18055e-15 9.93923e-16 -0.75 -8.88178e-16 1.77636e-15 2.5842e-15 3.18055e-15 2.5842e-15 0 0 0 -3.97569e-15 -3.18055e-15 -9.93923e-16 
8.69592 16.1714 3.2067 12.9547 -8.74305 -13.3509 0 0 0 -0 -3.18055e-15 -0 1.8 -1.4 0.085 -9.45233 -21.9686 -1.25633 2.215 -6 0 3.03454 18.7671 -29.9787 2.5 -6.9 8.88178e-16 -31.5629 -2.44265 25.4583 0.2 -0.5 1.95 -2.38542e-15 -1.59028e-15 3.18055e-15 0 0 0 -0 -3.18055e-15 -0 -1.8 -1.4 0.085 0.148615 -14.7507 -0.0197207 -2.215 -6 -8.88178e-16 -10.942 42.2858 -66.7646 -2.5 -6.9 -8.88178e-16 34.1914 -24.2629 16.5552 -0.2 -0.5 1.95 3.18055e-15 1.59028e-15 -1.59028e-15 0 0 0 -0 -3.18055e-15 -0 -0.087 1.94 -0.2889 42.9262 5.12697 7.08702 -3.55271e-15 1.95 0.06 -19.8889 -5.34864 10.8809 0 0 0 0.857043 -25.6084 6.57486 3.55271e-15 1.6 0.34 -1.52709 11.2639 6.3692 -1.77636e-15 1.667 -0.24 -10.0627 7.95238 22.6813 0 0 0 -30.5561 -4.1201 14.7635 2.7 1.55 -0.73 34.2651 -40.948 -34.5971 5.45 4.44089e-16 0 55.3247 40.2436 -57.8506 3.45 0 8.88178e-16 2.52002 5.9475 -16.9669 0 0 0 1.59028e-15 -3.18055e-15 -0 0.75 0 -1.77636e-15 3.18055e-15 4.77083e-15 3.18055e-15 0 0 0 -1.76556e-31 -3.18055e-15 -3.18055e-15 0 0 0 -0.779377 0.0887009 -2.35173 -2.7 1.55 -0.73 32.7135 -4.01179 112.96 -5.45 -8.88178e-16 1.77636e-15 145.53 -10.9101 120.193 -3.45 0 0 -25.6887 0.784932 -13.6131 0 0 0 -2.08724e-15 0 1.19271e-14 -0.75 0 1.77636e-15 6.70898e-15 0 1.49089e-16 0 0 0 -2.98177e-16 0 1.02374e-14 
8.75586 16.2122 3.26448 12.6244 -8.47485 -13.0305 0 0 0 -1.19271e-15 1.59028e-15 -3.18055e-15 1.8 -1.4 0.085 -9.7094 -21.6093 -1.26328 2.215 -6 0 3.17455 18.6475 -31.0929 2.5 -6.9 0 -29.9336 -3.59887 26.6748 0.2 -0.5 1.95 -1.98785e-15 0 -0 0 0 0 -1.19271e-15 1.59028e-15 -3.18055e-15 -1.8 -1.4 0.085 0.315652 -14.1522 -0.280842 -2.215 -6 0 -11.2232 41.3017 -66.6326 -2.5 -6.9 8.88178e-16 34.072 -23.6586 16.0628 -0.2 -0.5 1.95 3.18055e-15 1.19271e-15 -1.59028e-15 0 0 0 -1.19271e-15 1.59028e-15 -3.18055e-15 -0.087 1.94 -0.2889 43.0667 5.14248 7.14995 0 1.95 0.06 -19.8795 -5.39736 10.9468 0 0 0 0.584643 -25.1599 6.42402 3.55271e-15 1.6 0.34 -1.75152 11.7158 6.31266 0 1.667 -0.24 -9.55786 7.9288 22.031 0 0 0 -33.3488 -3.79802 13.2214 2.7 1.55 -0.73 40.1785 -41.1293 -29.687 5.45 -6.93889e-16 -1.77636e-15 56.3142 38.5886 -58.6187 3.45 0 -8.88178e-16 4.15687 5.49183 -17.3749 0 0 0 1.59028e-15 -4.77083e-15 -0 0.75 0 -1.77636e-15 4.77083e-15 -3.18055e-15 -6.36111e-15 0 0 0 -0 -4.77083e-15 -0 0 0 0 -0.156154 -0.0481601 -4.01831 -2.7 1.55 -0.73 32.155 -3.78222 113.308 -5.45 0 -3.55271e-15 144.192 -10.6496 118.652 -3.45 8.88178e-16 -8.88178e-16 -23.5798 0.622823 -13.9847 0 0 0 -1.19271e-15 1.27222e-14 9.93923e-15 -0.75 -8.88178e-16 0 -6.36111e-15 0 -3.97569e-15 0 0 0 5.96354e-16 1.27222e-14 8.54774e-15 
